# xmcd CD database file
#
# Track frame offsets:
#	150
#	7169
#	22391
#	37383
#	53008
#	72859
#	88305
#	100828
#	112274
#	124371
#	139239
#	150097
#
# Disc length: 2263 seconds
#
# Revision: 0
# Processed by: cddbd v1.5.2PL0 Copyright (c) Steve Scherf et al.
# Submitted via: jetAudio 7
#
DISCID=b108d50c
DTITLE=Willie Nelson - Dyan Cannon - Amy Irving - Honeysuckle Rose (Dis
DTITLE=c 2)
DYEAR=1900
DGENRE=Country
TTITLE0=If You Want Me To Love You I Will
TTITLE1=It's Not Supposed To Be That Way
TTITLE2=You Show Me Yours (And I'll Show You Mine)
TTITLE3=If You Could Touch Her At All
TTITLE4=Angel Flying Too Close To The Ground
TTITLE5=I Guess I've Come To Live Here In Your Eyes
TTITLE6=Angel Eyes (Angel Eyes)
TTITLE7=So You Think You're A Cowboy
TTITLE8=Make The World Go Away
TTITLE9=Two Sides To Every Story
TTITLE10=A Song For You
TTITLE11=Uncloudy Day
EXTD=
EXTT0=
EXTT1=
EXTT2=
EXTT3=
EXTT4=
EXTT5=
EXTT6=
EXTT7=
EXTT8=
EXTT9=
EXTT10=
EXTT11=
PLAYORDER=
